<mxfile host="app.diagrams.net" modified="2020-08-13T13:25:36.499Z" agent="5.0 (Macintosh; Intel Mac OS X 10_15_4) AppleWebKit/537.36 (KHTML, like Gecko) Chrome/84.0.4147.105 Safari/537.36" etag="G6WpGtMgAN3YydUiQRMY" version="13.6.2" type="github">
  <diagram id="YCehpucan4cIRxDryAWH" name="Page-1">
    <mxGraphModel dx="910" dy="591" grid="1" gridSize="10" guides="1" tooltips="1" connect="1" arrows="1" fold="1" page="1" pageScale="1" pageWidth="827" pageHeight="1169" math="0" shadow="0">
      <root>
        <mxCell id="0" />
        <mxCell id="1" parent="0" />
        <mxCell id="TA7Q4COBk0VQY2vn3XwS-16" value="" style="rounded=0;whiteSpace=wrap;html=1;strokeWidth=2;" vertex="1" parent="1">
          <mxGeometry x="350" y="830" width="190" height="220" as="geometry" />
        </mxCell>
        <mxCell id="TA7Q4COBk0VQY2vn3XwS-20" value="" style="rounded=0;whiteSpace=wrap;html=1;strokeWidth=2;" vertex="1" parent="1">
          <mxGeometry x="110" y="830" width="190" height="220" as="geometry" />
        </mxCell>
        <mxCell id="TA7Q4COBk0VQY2vn3XwS-13" value="" style="rounded=0;whiteSpace=wrap;html=1;strokeWidth=2;" vertex="1" parent="1">
          <mxGeometry x="110" y="670" width="430" height="100" as="geometry" />
        </mxCell>
        <mxCell id="TA7Q4COBk0VQY2vn3XwS-11" style="rounded=0;orthogonalLoop=1;jettySize=auto;html=1;exitX=0.5;exitY=1;exitDx=0;exitDy=0;entryX=0.5;entryY=0;entryDx=0;entryDy=0;strokeWidth=2;" edge="1" parent="1" source="TA7Q4COBk0VQY2vn3XwS-10" target="TA7Q4COBk0VQY2vn3XwS-8">
          <mxGeometry relative="1" as="geometry" />
        </mxCell>
        <mxCell id="TA7Q4COBk0VQY2vn3XwS-12" style="edgeStyle=none;rounded=0;orthogonalLoop=1;jettySize=auto;html=1;exitX=0.5;exitY=1;exitDx=0;exitDy=0;entryX=0.5;entryY=0;entryDx=0;entryDy=0;strokeWidth=2;" edge="1" parent="1" source="TA7Q4COBk0VQY2vn3XwS-10" target="TA7Q4COBk0VQY2vn3XwS-9">
          <mxGeometry relative="1" as="geometry" />
        </mxCell>
        <mxCell id="TA7Q4COBk0VQY2vn3XwS-10" value="" style="rounded=0;whiteSpace=wrap;html=1;strokeWidth=2;" vertex="1" parent="1">
          <mxGeometry x="180" y="380" width="300" height="110" as="geometry" />
        </mxCell>
        <mxCell id="TA7Q4COBk0VQY2vn3XwS-3" value="商务" style="shape=umlActor;verticalLabelPosition=bottom;verticalAlign=top;html=1;strokeWidth=2;" vertex="1" parent="1">
          <mxGeometry x="230" y="400" width="30" height="60" as="geometry" />
        </mxCell>
        <mxCell id="TA7Q4COBk0VQY2vn3XwS-4" value="风险" style="shape=umlActor;verticalLabelPosition=bottom;verticalAlign=top;html=1;strokeWidth=2;" vertex="1" parent="1">
          <mxGeometry x="290" y="400" width="30" height="60" as="geometry" />
        </mxCell>
        <mxCell id="TA7Q4COBk0VQY2vn3XwS-6" value="法务" style="shape=umlActor;verticalLabelPosition=bottom;verticalAlign=top;html=1;strokeWidth=2;" vertex="1" parent="1">
          <mxGeometry x="350" y="400" width="30" height="60" as="geometry" />
        </mxCell>
        <mxCell id="TA7Q4COBk0VQY2vn3XwS-7" value="Actor" style="shape=umlActor;verticalLabelPosition=bottom;verticalAlign=top;html=1;strokeWidth=2;" vertex="1" parent="1">
          <mxGeometry x="414" y="400" width="30" height="60" as="geometry" />
        </mxCell>
        <mxCell id="TA7Q4COBk0VQY2vn3XwS-23" style="edgeStyle=none;rounded=0;orthogonalLoop=1;jettySize=auto;html=1;exitX=0.5;exitY=1;exitDx=0;exitDy=0;entryX=0.5;entryY=0;entryDx=0;entryDy=0;strokeWidth=2;" edge="1" parent="1" source="TA7Q4COBk0VQY2vn3XwS-8" target="TA7Q4COBk0VQY2vn3XwS-14">
          <mxGeometry relative="1" as="geometry" />
        </mxCell>
        <mxCell id="TA7Q4COBk0VQY2vn3XwS-34" value="ip白名单" style="edgeLabel;html=1;align=center;verticalAlign=middle;resizable=0;points=[];" vertex="1" connectable="0" parent="TA7Q4COBk0VQY2vn3XwS-23">
          <mxGeometry x="-0.4286" relative="1" as="geometry">
            <mxPoint as="offset" />
          </mxGeometry>
        </mxCell>
        <mxCell id="TA7Q4COBk0VQY2vn3XwS-8" value="办公网" style="rounded=0;whiteSpace=wrap;html=1;strokeWidth=2;" vertex="1" parent="1">
          <mxGeometry x="110" y="550" width="170" height="70" as="geometry" />
        </mxCell>
        <mxCell id="TA7Q4COBk0VQY2vn3XwS-24" style="edgeStyle=none;rounded=0;orthogonalLoop=1;jettySize=auto;html=1;exitX=0.5;exitY=1;exitDx=0;exitDy=0;entryX=0.5;entryY=0;entryDx=0;entryDy=0;strokeWidth=2;" edge="1" parent="1" source="TA7Q4COBk0VQY2vn3XwS-9" target="TA7Q4COBk0VQY2vn3XwS-15">
          <mxGeometry relative="1" as="geometry" />
        </mxCell>
        <mxCell id="TA7Q4COBk0VQY2vn3XwS-9" value="堡垒机" style="rounded=0;whiteSpace=wrap;html=1;strokeWidth=2;" vertex="1" parent="1">
          <mxGeometry x="360" y="550" width="170" height="70" as="geometry" />
        </mxCell>
        <mxCell id="TA7Q4COBk0VQY2vn3XwS-30" style="edgeStyle=none;rounded=0;orthogonalLoop=1;jettySize=auto;html=1;exitX=0.5;exitY=1;exitDx=0;exitDy=0;entryX=0.5;entryY=0;entryDx=0;entryDy=0;strokeWidth=2;" edge="1" parent="1" source="TA7Q4COBk0VQY2vn3XwS-14" target="TA7Q4COBk0VQY2vn3XwS-17">
          <mxGeometry relative="1" as="geometry" />
        </mxCell>
        <mxCell id="TA7Q4COBk0VQY2vn3XwS-14" value="办公网NG" style="rounded=0;whiteSpace=wrap;html=1;strokeWidth=2;" vertex="1" parent="1">
          <mxGeometry x="135" y="690" width="120" height="60" as="geometry" />
        </mxCell>
        <mxCell id="TA7Q4COBk0VQY2vn3XwS-31" style="edgeStyle=none;rounded=0;orthogonalLoop=1;jettySize=auto;html=1;exitX=0.5;exitY=1;exitDx=0;exitDy=0;entryX=0.5;entryY=0;entryDx=0;entryDy=0;strokeWidth=2;" edge="1" parent="1" source="TA7Q4COBk0VQY2vn3XwS-15" target="TA7Q4COBk0VQY2vn3XwS-17">
          <mxGeometry relative="1" as="geometry" />
        </mxCell>
        <mxCell id="TA7Q4COBk0VQY2vn3XwS-15" value="CCNG" style="rounded=0;whiteSpace=wrap;html=1;strokeWidth=2;" vertex="1" parent="1">
          <mxGeometry x="385" y="690" width="120" height="60" as="geometry" />
        </mxCell>
        <mxCell id="TA7Q4COBk0VQY2vn3XwS-25" style="edgeStyle=none;rounded=0;orthogonalLoop=1;jettySize=auto;html=1;exitX=0;exitY=0.5;exitDx=0;exitDy=0;entryX=1;entryY=0.5;entryDx=0;entryDy=0;strokeWidth=2;" edge="1" parent="1" source="TA7Q4COBk0VQY2vn3XwS-17" target="TA7Q4COBk0VQY2vn3XwS-22">
          <mxGeometry relative="1" as="geometry" />
        </mxCell>
        <mxCell id="TA7Q4COBk0VQY2vn3XwS-29" value="发起oa" style="edgeLabel;html=1;align=center;verticalAlign=middle;resizable=0;points=[];" vertex="1" connectable="0" parent="TA7Q4COBk0VQY2vn3XwS-25">
          <mxGeometry x="0.0723" y="-2" relative="1" as="geometry">
            <mxPoint as="offset" />
          </mxGeometry>
        </mxCell>
        <mxCell id="TA7Q4COBk0VQY2vn3XwS-27" style="edgeStyle=none;rounded=0;orthogonalLoop=1;jettySize=auto;html=1;exitX=0;exitY=0.5;exitDx=0;exitDy=0;entryX=1;entryY=0.5;entryDx=0;entryDy=0;strokeWidth=2;" edge="1" parent="1" source="TA7Q4COBk0VQY2vn3XwS-17" target="TA7Q4COBk0VQY2vn3XwS-26">
          <mxGeometry relative="1" as="geometry" />
        </mxCell>
        <mxCell id="TA7Q4COBk0VQY2vn3XwS-28" value="鉴权" style="edgeLabel;html=1;align=center;verticalAlign=middle;resizable=0;points=[];" vertex="1" connectable="0" parent="TA7Q4COBk0VQY2vn3XwS-27">
          <mxGeometry x="-0.2269" y="-5" relative="1" as="geometry">
            <mxPoint x="-10.63" y="13.1" as="offset" />
          </mxGeometry>
        </mxCell>
        <mxCell id="TA7Q4COBk0VQY2vn3XwS-17" value="商户管理系统" style="rounded=0;whiteSpace=wrap;html=1;strokeWidth=2;" vertex="1" parent="1">
          <mxGeometry x="385" y="900" width="120" height="60" as="geometry" />
        </mxCell>
        <mxCell id="TA7Q4COBk0VQY2vn3XwS-18" value="代理层" style="text;html=1;strokeColor=none;fillColor=none;align=center;verticalAlign=middle;whiteSpace=wrap;rounded=0;" vertex="1" parent="1">
          <mxGeometry x="570" y="710" width="40" height="20" as="geometry" />
        </mxCell>
        <mxCell id="TA7Q4COBk0VQY2vn3XwS-19" value="app区" style="text;html=1;strokeColor=none;fillColor=none;align=center;verticalAlign=middle;whiteSpace=wrap;rounded=0;" vertex="1" parent="1">
          <mxGeometry x="430" y="830" width="40" height="20" as="geometry" />
        </mxCell>
        <mxCell id="TA7Q4COBk0VQY2vn3XwS-21" value="办公区" style="text;html=1;strokeColor=none;fillColor=none;align=center;verticalAlign=middle;whiteSpace=wrap;rounded=0;" vertex="1" parent="1">
          <mxGeometry x="185" y="830" width="40" height="20" as="geometry" />
        </mxCell>
        <mxCell id="TA7Q4COBk0VQY2vn3XwS-22" value="OA" style="rounded=0;whiteSpace=wrap;html=1;strokeWidth=2;" vertex="1" parent="1">
          <mxGeometry x="142.5" y="860" width="125" height="60" as="geometry" />
        </mxCell>
        <mxCell id="TA7Q4COBk0VQY2vn3XwS-26" value="办公门户" style="rounded=0;whiteSpace=wrap;html=1;strokeWidth=2;" vertex="1" parent="1">
          <mxGeometry x="145" y="940" width="120" height="60" as="geometry" />
        </mxCell>
      </root>
    </mxGraphModel>
  </diagram>
</mxfile>
